<?xml version="1.0" encoding="UTF-8"?>
<svg width="128pt" height="128pt" version="1.1" viewBox="0 0 128 128" xmlns="http://www.w3.org/2000/svg">
 <path d="m41.898 80.383c-0.68359 0-1.2812 0.59766-1.2812 1.2812 0 0.68359 0.59766 1.2812 1.2812 1.2812h9.8984c-0.17188-0.85156-0.25781-1.707-0.33984-2.5586z"/>
 <path d="m86.102 80.383h-9.5586c-0.085938 0.85156-0.25781 1.707-0.33984 2.5586h9.8984c0.68359 0 1.2812-0.59766 1.2812-1.2812 0-0.67969-0.51172-1.2773-1.2812-1.2773z"/>
 <path d="m81.922 54.527c-0.85156 7.168-2.7305 12.543-4.5234 15.703v-1.9609-0.59766-32.855c0.42578-0.25781 0.76953-0.42578 1.1094-0.42578h0.085938c2.3867 0.25391 4.7773 8.2773 3.3281 20.137z"/>
 <path d="m50.602 70.23c-1.793-3.1562-3.668-8.5352-4.5234-15.703-1.4492-11.863 0.9375-19.883 3.2422-20.137 0.33984 0 0.76953 0.085937 1.1953 0.42578v32.852 0.76953c0 0.59766 0.085937 1.1953 0.085937 1.793z"/>
 <path d="m64.172 13.227h-0.17188c-2.7305 0-5.375 1.1094-7.4258 3.0703-2.2188 2.1328-3.5 5.207-3.5 8.2773v43.008c0 8.7031 5.6328 12.715 10.922 12.715 5.2891 0 10.922-4.0117 10.922-12.715l0.003906-43.262c0-5.9727-4.7773-11.008-10.75-11.094zm2.8164 14.336-2.9883 5.8047-2.9883-5.8008c1.8789-1.1992 4.0977-1.1992 5.9766-0.003906zm-10.754-5.5469c0-1.0234 0.76953-1.793 1.793-1.793 0.9375 0 1.793 0.76953 1.793 1.793 0 0.9375-0.76953 1.793-1.793 1.793-0.9375 0-1.793-0.85547-1.793-1.793zm13.738 1.793c-0.9375 0-1.793-0.76953-1.793-1.793s0.76953-1.793 1.793-1.793c0.9375 0 1.793 0.76953 1.793 1.793 0 0.9375-0.85547 1.793-1.793 1.793z"/>
 <path d="m54.699 79.02c-0.33984-0.33984-0.68359-0.76953-1.0234-1.1094 0.085938 0.85156 0.17188 1.6211 0.25781 2.4766h2.2188c-0.42969-0.42969-0.94141-0.85547-1.4531-1.3672z"/>
 <path d="m64 82.945h-9.6445c0 0.17188 0 0.33984 0.085937 0.42578 0.9375 5.375 2.3047 10.754 4.0977 15.871l5.4609 15.445 5.4609-15.445c1.8789-5.375 3.2422-10.836 4.1797-16.383z"/>
 <path d="m74.324 77.824c-0.76953 1.0234-1.6211 1.793-2.6445 2.5586h2.3047c0.085937-0.85156 0.25391-1.707 0.33984-2.5586z"/>
</svg>
